HIERARCHY
ROOT root
{
	OFFSET	0	13.1	24.9
	CHANNELS 6  Xposition Yposition Zposition Xrotation Yrotation Zrotation
	JOINT spine_1
	{
		OFFSET	0	9.99999	0
		CHANNELS 3  Xrotation Yrotation Zrotation
		JOINT spine_2
		{
			OFFSET	0	112	-10
			CHANNELS 3  Xrotation Yrotation Zrotation
			JOINT spine_3
			{
				OFFSET	0	206.5	19.3
				CHANNELS 3  Xrotation Yrotation Zrotation
				JOINT spine_4
				{
					OFFSET	0	110.4	14.6
					CHANNELS 3  Xrotation Yrotation Zrotation
					JOINT neck_1
					{
						OFFSET	0	71.8	-50.3
						CHANNELS 3  Xrotation Yrotation Zrotation
						JOINT neck_2
						{
							OFFSET	0	86.2	-25.8
							CHANNELS 3  Xrotation Yrotation Zrotation
							JOINT head_ee
							{
								OFFSET	0	179.8	-8.7
								CHANNELS 3  Xrotation Yrotation Zrotation
								End Site
								{
									OFFSET	1	0	0
								}
							}
						}
					}
					JOINT left_clavicle
					{
						OFFSET	-43.2	22.4	-70.8
						CHANNELS 3  Xrotation Yrotation Zrotation
						JOINT left_shoulder
						{
							OFFSET	-93.9	-5.79999	48.7
							CHANNELS 3  Xrotation Yrotation Zrotation
							JOINT left_elbow
							{
								OFFSET	-291.4	-30.8	15.2
								CHANNELS 3  Xrotation Yrotation Zrotation
								JOINT left_lowarm_twist
								{
									OFFSET	-110.7	-3.89999	13.6
									CHANNELS 3  Xrotation Yrotation Zrotation
									JOINT left_hand
									{
										OFFSET	-110.7	-3.89999	13.6
										CHANNELS 3  Xrotation Yrotation Zrotation
										JOINT left_ee
										{
											OFFSET	-80.8	-5.10001	12.1
											CHANNELS 3  Xrotation Yrotation Zrotation
											End Site
											{
												OFFSET	1	0	0
											}
										}
									}
								}
							}
						}
					}
					JOINT right_clavicle
					{
						OFFSET	43.2	22.4	-70.8
						CHANNELS 3  Xrotation Yrotation Zrotation
						JOINT right_shoulder
						{
							OFFSET	93.9	-5.79999	48.7
							CHANNELS 3  Xrotation Yrotation Zrotation
							JOINT right_elbow
							{
								OFFSET	291.4	-30.8	15.2
								CHANNELS 3  Xrotation Yrotation Zrotation
								JOINT right_lowarm_twist
								{
									OFFSET	110.7	-3.89999	13.6
									CHANNELS 3  Xrotation Yrotation Zrotation
									JOINT right_hand
									{
										OFFSET	110.7	-3.89999	13.6
										CHANNELS 3  Xrotation Yrotation Zrotation
										JOINT right_ee
										{
											OFFSET	80.8	-5.10001	12.1
											CHANNELS 3  Xrotation Yrotation Zrotation
											End Site
											{
												OFFSET	1	0	0
											}
										}
									}
								}
							}
						}
					}
				}
			}
		}
	}
	JOINT left_hip
	{
		OFFSET	-82.8	-127.5	0.300001
		CHANNELS 3  Xrotation Yrotation Zrotation
		JOINT left_knee
		{
			OFFSET	-28.2	-396.7	2.2
			CHANNELS 3  Xrotation Yrotation Zrotation
			JOINT left_ankle
			{
				OFFSET	-11.7	-411.3	35.4
				CHANNELS 3  Xrotation Yrotation Zrotation
				JOINT left_toes
				{
					OFFSET	0	-60	-88.6
					CHANNELS 3  Xrotation Yrotation Zrotation
					JOINT left_foot_ee
					{
						OFFSET	-22.5	-16.5	-42.2
						CHANNELS 3  Xrotation Yrotation Zrotation
						End Site
						{
							OFFSET	1	0	0
						}
					}
				}
			}
		}
	}
	JOINT right_hip
	{
		OFFSET	82.8	-127.5	0.300001
		CHANNELS 3  Xrotation Yrotation Zrotation
		JOINT right_knee
		{
			OFFSET	28.2	-396.7	2.2
			CHANNELS 3  Xrotation Yrotation Zrotation
			JOINT right_ankle
			{
				OFFSET	11.7	-411.3	35.4
				CHANNELS 3  Xrotation Yrotation Zrotation
				JOINT right_toes
				{
					OFFSET	0	-60	-88.6
					CHANNELS 3  Xrotation Yrotation Zrotation
					JOINT right_foot_ee
					{
						OFFSET	22.5	-16.5	-42.2
						CHANNELS 3  Xrotation Yrotation Zrotation
						End Site
						{
							OFFSET	1	0	0
						}
					}
				}
			}
		}
	}
}
MOTION
Frames: 13
Frame Time: 0.02
3526.33021564 699.958 -1516.14294895 6.98343621446 66.8202904165 -17.0662712291 -1.15575 0.441317 3.8752 -1.14741 0.194025 3.89539 -1.12762 -0.705559 3.83596 -1.14813 -0.0913674 3.89914 -11.0068 18.4525 1.43758 -11.5844 33.9884 6.58823 -0.0 0.0 -0.0 -3.85257 21.8958 -2.92099 -9.80208 -19.5615 64.8472 2.25337 -48.1377 1.00661 -34.5164 -2.38775 3.63966 -0.794996 19.8279 3.25428 -0.0 0.0 -0.0 13.0327 25.0773 -25.8581 -2.79043 15.4968 -67.8709 0.505607 14.0614 -0.0623561 79.7662 3.81162 8.59654 2.96649 2.31792 -19.3082 0.0 0.0 0.0 8.32566 9.25757 4.39123 -53.7711 -1.56622 7.80447 34.8099 4.30728 -4.38102 -18.488 0.0 0.0 -0.0 0.0 -0.0 -1.54987 -3.54123 12.5491 -21.1388 -0.280365 -3.21343 39.7267 15.0782 5.14401 4.03077 -0.0 -0.0 0.0 0.0 0.0 
3504.43048882 701.58 -1510.02582023 6.79792216193 71.4656046313 -17.1134146196 -0.68774 0.635244 3.79677 -0.679808 0.392541 3.82943 -0.647768 -0.464705 3.82136 -0.668112 0.144176 3.84677 -12.1209 16.9832 -0.437865 -12.7905 32.5209 4.70723 -0.0 0.0 -0.0 -3.38024 23.1998 -1.97398 -16.1497 -20.3896 64.4164 1.62658 -38.8575 0.573761 -33.8074 -2.31794 3.58137 -0.386717 17.2563 4.65519 -0.0 0.0 -0.0 13.3025 26.9125 -26.2654 -0.738876 17.7817 -67.6677 0.449956 12.5658 -0.0495398 77.7931 3.58653 8.4805 3.04031 4.839 -18.7726 0.0 0.0 0.0 10.4881 5.34213 5.60607 -56.776 -1.86209 8.16076 35.1332 7.23541 -4.41322 -19.9413 0.0 0.0 -0.0 0.0 -0.0 -1.31045 -7.74797 12.9729 -19.0843 -0.30541 -2.8992 38.1614 16.9855 5.06687 4.66316 -0.0 -0.0 0.0 0.0 0.0 
3500.85222219 702.669 -1507.43997658 2.64450316469 72.7755549513 -12.5845155359 -0.113818 0.653828 3.69351 -0.106327 0.417643 3.72756 -0.07479 -0.380239 3.73156 -0.0941541 0.213437 3.74479 -12.6934 17.0002 -0.925294 -13.458 32.9058 4.44662 -0.0 0.0 -0.0 -3.18766 23.5803 -1.62959 -18.0568 -19.8854 64.568 1.3715 -34.1905 0.421823 -33.7938 -2.31661 3.58025 -0.28565 17.6636 5.43532 -0.0 0.0 -0.0 13.4367 26.971 -26.5688 2.03877 18.8848 -67.2764 0.464098 12.9475 -0.0526624 77.6091 3.56575 8.46929 2.84354 6.6998 -16.5754 0.0 0.0 0.0 11.7066 3.77185 5.76767 -51.6149 -1.36571 7.53962 36.4418 11.9454 -4.56582 -19.3175 0.0 0.0 -0.0 0.0 -0.0 -1.22586 -9.2928 12.5238 -15.7137 -0.322054 -2.38238 36.4409 18.0251 4.94028 5.38287 -0.0 -0.0 0.0 0.0 0.0 
3498.09555498 705.983 -1503.46313057 1.5498907884 74.5513865006 -11.2655323128 -0.142694 0.837474 3.55537 -0.135869 0.609691 3.60137 -0.0930992 -0.166583 3.64875 -0.111438 0.411372 3.62934 -13.0808 16.5527 -1.17493 -13.8586 32.2358 4.17845 -0.0 0.0 -0.0 -2.62268 23.4167 -0.88535 -19.6374 -19.4408 64.7483 1.27311 -32.2367 0.367921 -33.5818 -2.29587 3.56264 0.00860769 14.9842 6.18799 -0.0 0.0 -0.0 13.1293 27.0215 -25.8514 3.64276 20.2742 -67.0031 0.586486 16.2002 -0.083471 76.6641 3.45958 8.41065 3.07266 7.82991 -17.6948 0.0 0.0 0.0 13.3157 2.10095 5.32585 -47.3366 -0.998198 6.99304 30.0907 14.8435 -3.94302 -20.2879 0.0 0.0 -0.0 0.0 -0.0 -0.320136 -8.88712 12.6158 -15.7947 -0.322011 -2.39481 34.8032 19.8724 4.84678 6.10813 -0.0 -0.0 0.0 0.0 0.0 
3495.26169343 710.176 -1509.91832052 -0.804599468884 74.868786662 -8.71387466073 0.207276 1.05993 3.55451 0.21392 0.831749 3.61464 0.27045 0.0716564 3.70829 0.251863 0.656017 3.65058 -15.9815 16.5089 0.17073 -17.0908 31.5432 6.35448 -0.0 0.0 -0.0 -2.74902 22.6525 -1.20477 -22.0742 -18.2387 66.1771 1.04373 -27.3397 0.253858 -34.1374 -2.35034 3.60861 0.0362369 14.9707 6.355 -0.0 0.0 -0.0 13.7671 27.1495 -27.3132 6.21197 22.1733 -66.9741 0.531571 14.7527 -0.0688161 76.2474 3.41308 8.38424 3.1046 9.15653 -17.3246 0.0 0.0 0.0 20.1883 -0.210836 2.12799 -33.8279 -0.121484 5.1154 21.6533 20.383 -3.01543 -24.6623 0.0 0.0 -0.0 0.0 -0.0 -0.790874 -12.7332 11.0808 -10.3824 -0.286296 -1.56547 34.8042 23.65 5.01364 7.024 -0.0 -0.0 0.0 0.0 0.0 
3489.52264533 712.552 -1505.41227616 -5.07822520483 76.9231842129 -3.68402783663 0.52755 0.907737 3.54697 0.534291 0.680344 3.59746 0.580182 -0.0534866 3.66075 0.561869 0.524946 3.62336 -15.7291 16.5134 -1.61377 -16.8837 32.5537 4.63982 -0.0 0.0 -0.0 -2.09516 23.0506 -0.22346 -24.5508 -17.3709 65.9472 0.82654 -22.2662 0.162659 -34.1399 -2.35058 3.60881 -0.0999637 15.0378 5.53286 -0.0 0.0 -0.0 13.8785 27.1353 -27.5744 6.81259 22.1391 -66.5174 0.692896 18.9443 -0.115606 76.4133 3.43157 8.3948 3.31948 9.29103 -18.7864 0.0 0.0 0.0 21.7703 -2.17595 1.27609 -32.3632 -0.0536834 4.9009 17.5342 20.7485 -2.4882 -24.2119 0.0 0.0 -0.0 0.0 -0.0 -0.264534 -12.2537 11.2298 -10.3279 -0.285537 -1.55713 34.1598 27.0536 5.12317 6.01296 -0.0 -0.0 0.0 0.0 0.0 
3486.68954935 716.508 -1505.66570475 -8.70316034019 77.560448051 0.308835062386 0.784519 1.10094 3.51632 0.790971 0.8751 3.57914 0.84849 0.158665 3.68102 0.830343 0.73764 3.60993 -18.3353 15.7893 -4.39174 -19.8216 32.6797 2.62894 -0.0 0.0 -0.0 -1.77569 21.975 0.0443758 -27.5808 -16.2898 66.3935 0.799289 -21.6007 0.15248 -34.1739 -2.35393 3.61161 -0.34513 13.9843 3.57809 -0.0 0.0 -0.0 13.8381 27.2669 -27.4628 6.55696 23.1375 -65.5873 0.872549 23.3755 -0.180505 75.3522 3.31383 8.32637 3.9189 9.36138 -23.0763 0.0 0.0 0.0 22.9247 -1.72999 -0.269791 -29.0222 0.0802744 4.40575 12.3345 20.8173 -1.78489 -24.9084 0.0 0.0 -0.0 0.0 -0.0 -0.711889 -13.0749 10.2536 -7.16387 -0.227984 -1.07509 33.5586 30.5066 5.26823 7.22889 -0.0 -0.0 0.0 0.0 0.0 
3478.08423531 716.41 -1510.44821584 -10.6248681566 79.218223437 2.99031727031 0.882842 1.1282 3.48985 0.889163 0.903987 3.55446 0.947896 0.198241 3.66212 0.930019 0.773742 3.58503 -16.4166 15.8644 -4.62531 -17.6537 33.0158 1.80719 -0.0 0.0 -0.0 -1.72186 21.9698 0.119623 -29.57 -16.0914 66.7686 0.708024 -19.3275 0.120566 -34.4796 -2.38411 3.63666 -0.396255 13.7724 3.17109 -0.0 0.0 -0.0 14.209 27.1155 -28.3492 7.99439 24.3326 -65.9861 0.893053 23.864 -0.18872 75.761 3.35904 8.35299 3.70762 8.85821 -21.7744 0.0 0.0 0.0 23.9169 -2.37583 -1.8062 -29.6444 0.0575238 4.49852 11.7102 20.8649 -1.69848 -24.8924 0.0 0.0 -0.0 0.0 -0.0 -0.317913 -13.9944 8.69673 -9.66467 -0.275681 -1.45585 32.7701 24.9412 4.85566 6.30053 -0.0 -0.0 0.0 0.0 0.0 
3467.67344133 717.104 -1505.97994581 -13.4972934302 79.8023919563 6.24150763502 1.08499 1.02802 3.47191 1.09133 0.805148 3.53019 1.14305 0.11812 3.61881 1.12544 0.687796 3.55489 -15.3662 15.6662 -5.92417 -16.4396 33.4095 0.153921 -0.0 0.0 -0.0 -1.57882 21.9993 0.326406 -32.1762 -15.429 67.1808 0.692184 -18.9262 0.115375 -34.8362 -2.41948 3.66567 -0.535372 13.0305 1.9898 -0.0 0.0 -0.0 13.6337 27.2157 -26.9943 8.52547 25.4439 -66.6289 1.09559 28.4889 -0.278138 75.2317 3.30053 8.31845 4.17048 9.00472 -25.1018 0.0 0.0 0.0 24.2344 -2.31663 -4.11576 -22.4971 0.257625 3.42061 10.7314 20.7871 -1.5611 -25.1655 0.0 0.0 -0.0 0.0 -0.0 -0.677583 -14.5564 9.39228 -9.1537 -0.267287 -1.37789 32.6882 31.7387 5.24977 8.58354 -0.0 -0.0 0.0 0.0 0.0 
3467.66306927 717.104 -1505.94449408 -13.5220267352 79.8208931201 6.2666371934 1.08499 1.02802 3.47191 1.09133 0.805148 3.53019 1.14305 0.11812 3.61881 1.12544 0.687796 3.55489 -15.3662 15.6662 -5.92417 -16.4396 33.4095 0.153921 -0.0 0.0 -0.0 -1.57882 21.9993 0.326406 -32.1762 -15.429 67.1808 0.692184 -18.9262 0.115375 -34.8362 -2.41948 3.66567 -0.535372 13.0305 1.9898 -0.0 0.0 -0.0 13.6337 27.2157 -26.9943 8.52547 25.4439 -66.6289 1.09559 28.4889 -0.278138 75.2317 3.30053 8.31845 4.17048 9.00472 -25.1018 0.0 0.0 0.0 24.2344 -2.31663 -4.11576 -22.4971 0.257625 3.42061 10.7314 20.7871 -1.5611 -25.1655 0.0 0.0 -0.0 0.0 -0.0 -0.677583 -14.5564 9.39228 -9.1537 -0.267287 -1.37789 32.6882 31.7387 5.24977 8.58354 -0.0 -0.0 0.0 0.0 0.0 
3437.39410334 703.417 -1503.03635519 -17.1289031517 81.1970366085 10.8115137585 1.30728 0.933077 3.57428 1.31412 0.7039 3.62632 1.3603 0.0142236 3.69388 1.34175 0.597032 3.64541 -11.0179 15.2716 -7.69127 -11.3783 33.8705 -3.1951 -0.0 0.0 -0.0 -0.893624 21.2608 1.19294 -39.8274 -13.8952 67.8212 0.651625 -17.89 0.102567 -36.8122 -2.6187 3.82244 -1.0185 11.1968 -1.8538 -0.0 0.0 -0.0 13.6111 27.1728 -26.9474 12.6402 28.5587 -67.5895 1.18817 30.4793 -0.323712 75.8958 3.37399 8.36169 4.32817 8.09291 -26.7213 0.0 0.0 0.0 23.9796 -3.28555 -6.73802 -14.4149 0.32035 2.18313 7.50586 21.9122 -1.10804 -26.1382 0.0 0.0 -0.0 0.0 -0.0 -1.13549 -16.7139 8.67029 -11.6357 -0.301535 -1.75716 34.354 30.3675 5.35001 11.3481 -0.0 -0.0 0.0 0.0 0.0 
3437.19033861 703.417 -1502.0313944 -17.9657207085 81.5974074025 11.6578478628 1.30728 0.933077 3.57428 1.31412 0.7039 3.62632 1.3603 0.0142236 3.69388 1.34175 0.597032 3.64541 -11.0179 15.2716 -7.69127 -11.3783 33.8705 -3.1951 -0.0 0.0 -0.0 -0.893624 21.2608 1.19294 -39.8274 -13.8952 67.8212 0.651625 -17.89 0.102567 -36.8122 -2.6187 3.82244 -1.0185 11.1968 -1.8538 -0.0 0.0 -0.0 13.6111 27.1728 -26.9474 12.6402 28.5587 -67.5895 1.18817 30.4793 -0.323712 75.8958 3.37399 8.36169 4.32817 8.09291 -26.7213 0.0 0.0 0.0 23.9796 -3.28555 -6.73802 -14.4149 0.32035 2.18313 7.50586 21.9122 -1.10804 -26.1382 0.0 0.0 -0.0 0.0 -0.0 -1.13549 -16.7139 8.67029 -11.6357 -0.301535 -1.75716 34.354 30.3675 5.35001 11.3481 -0.0 -0.0 0.0 0.0 0.0 
3430.69346029 700.872 -1499.40973018 -21.7086697664 81.816663395 15.7021907119 1.47042 0.788869 3.61207 1.4775 0.557583 3.65486 1.51422 -0.12522 3.69498 1.49546 0.459503 3.66847 -10.6743 15.2499 -7.53011 -10.9857 33.7309 -3.16491 -0.0 0.0 -0.0 -0.876741 21.8824 1.30149 -41.4991 -13.4102 68.5813 0.563797 -15.6046 0.0772542 -36.087 -2.54496 3.7657 -0.941799 10.757 -1.55908 -0.0 0.0 -0.0 13.5774 27.2314 -26.8616 14.6176 29.4506 -68.53 1.24183 31.5971 -0.351381 74.9904 3.27398 8.30254 4.14808 7.70968 -25.5532 0.0 0.0 0.0 24.1568 -3.49095 -7.15971 -12.7323 0.311426 1.92513 7.59795 22.2718 -1.12309 -26.1672 0.0 0.0 -0.0 0.0 -0.0 -1.43381 -15.8002 8.96029 -12.4416 -0.309118 -1.88059 31.7074 30.7312 5.06349 10.8904 -0.0 -0.0 0.0 0.0 0.0 
